<svg width="300" height="246" viewBox="0 0 300 246" fill="none" xmlns="http://www.w3.org/2000/svg">
<path d="M0 8.91585C0 8.91585 9.81818 -0.311418 31.4545 8.91585C53.0909 18.1431 53.0909 61.6431 53.0909 61.6431H54.1818L75.8182 8.91585C75.8182 8.91585 96 32.6431 107.273 8.91585C118.545 -14.8114 107.273 102.007 107.273 102.007H82.5455V48.1886H81.8182C81.8182 48.1886 39.6364 100.552 61.0909 101.28C82.5455 102.007 46.1818 101.28 46.1818 101.28L25.4545 47.8249H24.7273V102.007H0V8.91585Z" fill="url(#paint0_linear_1_17)"/>
<path d="M203.032 55.4613C203.032 65.8249 201.017 74.5674 196.986 81.6886C192.956 88.7795 187.517 94.1583 180.668 97.825C173.82 101.461 166.183 103.28 157.759 103.28C149.274 103.28 153.5 91.1431 134.759 97.7795C116.018 104.416 122.517 88.6886 118.486 81.5977C114.486 74.4765 112.486 65.7643 112.486 55.4613C112.486 45.0977 114.486 36.3704 118.486 29.2795C122.517 22.1583 127.941 16.7795 134.759 13.1431C141.608 9.47646 149.274 7.64312 157.759 7.64312C166.183 7.64312 184.305 47.6431 180.668 13.1431C177.032 -21.3569 192.956 22.1583 196.986 29.2795C201.017 36.3704 203.032 45.0977 203.032 55.4613ZM177.032 55.4613C177.032 49.8855 176.289 45.1886 174.805 41.3704C173.35 37.5219 171.183 34.6128 168.305 32.6431C165.456 30.6431 161.941 29.6431 157.759 29.6431C153.577 29.6431 150.047 30.6431 147.168 32.6431C144.32 34.6128 142.153 37.5219 140.668 41.3704C139.214 45.1886 138.486 49.8855 138.486 55.4613C138.486 61.0371 139.214 65.7492 140.668 69.5977C142.153 73.4159 144.32 76.325 147.168 78.325C150.047 80.2947 153.577 81.2795 157.759 81.2795C161.941 81.2795 165.456 80.2947 168.305 78.325C171.183 76.325 173.35 73.4159 174.805 69.5977C176.289 65.7492 177.032 61.0371 177.032 55.4613Z" fill="url(#paint1_linear_1_17)"/>
<path d="M298.507 55.4613C298.507 65.8249 271.953 90.1431 292.461 81.6886C312.969 73.2341 282.992 94.1583 276.143 97.825C269.295 101.461 261.658 103.28 253.234 103.28C244.749 103.28 237.083 101.446 230.234 97.7795C223.416 94.0825 217.992 88.6886 213.961 81.5977C209.961 74.4765 207.961 65.7643 207.961 55.4613C207.961 45.0977 209.961 36.3704 213.961 29.2795C217.992 22.1583 223.416 16.7795 230.234 13.1431C237.083 9.47646 244.749 7.64312 253.234 7.64312C261.658 7.64312 269.295 9.47646 276.143 13.1431C282.992 16.7795 288.431 22.1583 292.461 29.2795C296.492 36.3704 298.507 45.0977 298.507 55.4613ZM272.507 55.4613C272.507 49.8855 271.764 45.1886 270.28 41.3704C268.825 37.5219 266.658 34.6128 263.78 32.6431C260.931 30.6431 257.416 29.6431 253.234 29.6431C249.052 29.6431 245.522 30.6431 242.643 32.6431C239.795 34.6128 211.197 13.1431 236.143 41.3704C261.09 69.5977 233.961 49.8855 233.961 55.4613C233.961 61.0371 234.689 65.7492 236.143 69.5977C237.628 73.4159 239.795 76.325 242.643 78.325C245.522 80.2947 249.052 81.2795 253.234 81.2795C257.416 81.2795 260.931 80.2947 263.78 78.325C266.658 76.325 268.825 73.4159 270.28 69.5977C271.764 65.7492 272.507 61.0371 272.507 55.4613Z" fill="url(#paint2_linear_1_17)"/>
<path d="M38.1557 200.007H2.33751V106.916H37.7921C47.3678 106.916 65.5303 106.416 72.5 110.143C79.5 113.84 86.0246 116.173 89.8125 123.143C93.6307 130.083 99.5 143.764 99.5 153.461C99.5 163.158 93.6004 178.083 89.8125 185.052C86.0246 191.992 52.1364 188.87 75.8182 200.007C99.5 211.143 47.6102 200.007 38.1557 200.007ZM27.6102 178.552H37.2466C41.8527 178.552 45.7769 177.81 49.0193 176.325C52.2921 174.84 54.7769 172.28 56.4739 168.643C58.2011 165.007 59.0648 159.946 59.0648 153.461C59.0648 146.976 58.186 141.916 56.4284 138.28C54.7011 134.643 52.1557 132.083 48.7921 130.598C45.4587 129.113 41.3678 128.37 36.5193 128.37H27.6102V178.552Z" fill="url(#paint3_linear_1_17)"/>
<path d="M115.085 106.916V200.007H89.8125C112.829 166.722 113.449 146.423 89.8125 106.916H115.085Z" fill="url(#paint4_linear_1_17)"/>
<path d="M120.663 200.007V106.916H292.461C292.461 106.916 306.274 108.598 292.461 128.37C278.649 148.143 145.935 127.28 145.935 127.28V143.28H182.117C182.117 143.28 203.734 147.143 182.117 163.643C160.5 180.143 145.935 163.643 145.935 163.643V200.007H120.663Z" fill="url(#paint5_radial_1_17)"/>
<path d="M185.194 106.916H213.376L231.558 144.734H232.285L250.467 106.916H278.649L244.467 170.734V245.143H219.376V170.734L185.194 106.916Z" fill="url(#paint6_radial_1_17)"/>
<path d="M263.194 245.143C259.679 245.143 256.664 243.916 254.149 241.461C251.664 238.976 250.437 235.961 250.467 232.416C250.437 228.961 251.664 226.007 254.149 223.552C256.664 221.098 259.679 219.87 263.194 219.87C266.528 219.87 269.467 221.098 272.013 223.552C274.588 226.007 275.891 228.961 275.922 232.416C275.891 234.779 275.27 236.931 274.058 238.87C272.876 240.779 271.331 242.31 269.422 243.461C267.512 244.583 265.437 245.143 263.194 245.143Z" fill="url(#paint7_linear_1_17)"/>
<defs>
<linearGradient id="paint0_linear_1_17" x1="159.5" y1="-36.5" x2="60.5" y2="140" gradientUnits="userSpaceOnUse">
<stop offset="0.197917" stop-color="#4B8FCF"/>
<stop offset="1" stop-color="#DA7979"/>
</linearGradient>
<linearGradient id="paint1_linear_1_17" x1="149.763" y1="0" x2="149.763" y2="245.143" gradientUnits="userSpaceOnUse">
<stop stop-color="#DA7979"/>
<stop offset="0.666079" stop-color="#4B8FCF"/>
</linearGradient>
<linearGradient id="paint2_linear_1_17" x1="327" y1="-84" x2="149.763" y2="245.143" gradientUnits="userSpaceOnUse">
<stop offset="0.117258" stop-color="#4B8FCF"/>
<stop offset="0.729473" stop-color="#DA7979"/>
</linearGradient>
<linearGradient id="paint3_linear_1_17" x1="132" y1="43" x2="1.77664e-05" y2="245" gradientUnits="userSpaceOnUse">
<stop offset="0.262649" stop-color="#4B8FCF"/>
<stop offset="0.856377" stop-color="#DA7979"/>
</linearGradient>
<linearGradient id="paint4_linear_1_17" x1="139" y1="148.5" x2="84.5" y2="147" gradientUnits="userSpaceOnUse">
<stop offset="0.34375" stop-color="#DA7979"/>
<stop offset="1" stop-color="#4B8FCF"/>
</linearGradient>
<radialGradient id="paint5_radial_1_17" cx="0" cy="0" r="1" gradientUnits="userSpaceOnUse" gradientTransform="translate(141.5 158) rotate(-33.472) scale(182.22 222.645)">
<stop stop-color="#DA7979"/>
<stop offset="0.88244" stop-color="#4B8FCF"/>
</radialGradient>
<radialGradient id="paint6_radial_1_17" cx="0" cy="0" r="1" gradientUnits="userSpaceOnUse" gradientTransform="translate(260.889 137.864) rotate(135.473) scale(121.747 193.277)">
<stop offset="0.13244" stop-color="#DA7979"/>
<stop offset="1" stop-color="#4B8FCF"/>
</radialGradient>
<linearGradient id="paint7_linear_1_17" x1="250.854" y1="165.69" x2="206.394" y2="222.125" gradientUnits="userSpaceOnUse">
<stop offset="0.585565" stop-color="#DA7979"/>
<stop offset="1" stop-color="#4B8FCF"/>
</linearGradient>
</defs>
</svg>
