<svg width="299" height="194" viewBox="0 0 299 194" fill="none" xmlns="http://www.w3.org/2000/svg">
<path d="M0 1.27273H31.4545L53.0909 54H54.1818L75.8182 1.27273H107.273V94.3636H82.5455V40.5455H81.8182L61.0909 93.6364H46.1818L25.4545 40.1818H24.7273V94.3636H0V1.27273Z" fill="url(#paint0_linear_1_17)"/>
<path d="M203.032 47.8182C203.032 58.1818 201.017 66.9242 196.986 74.0455C192.956 81.1364 187.517 86.5152 180.668 90.1818C173.82 93.8182 166.183 95.6364 157.759 95.6364C149.274 95.6364 141.608 93.803 134.759 90.1364C127.941 86.4394 122.517 81.0455 118.486 73.9545C114.486 66.8333 112.486 58.1212 112.486 47.8182C112.486 37.4545 114.486 28.7273 118.486 21.6364C122.517 14.5152 127.941 9.13636 134.759 5.5C141.608 1.83333 149.274 0 157.759 0C166.183 0 173.82 1.83333 180.668 5.5C187.517 9.13636 192.956 14.5152 196.986 21.6364C201.017 28.7273 203.032 37.4545 203.032 47.8182ZM177.032 47.8182C177.032 42.2424 176.289 37.5455 174.805 33.7273C173.35 29.8788 171.183 26.9697 168.305 25C165.456 23 161.941 22 157.759 22C153.577 22 150.047 23 147.168 25C144.32 26.9697 142.153 29.8788 140.668 33.7273C139.214 37.5455 138.486 42.2424 138.486 47.8182C138.486 53.3939 139.214 58.1061 140.668 61.9545C142.153 65.7727 144.32 68.6818 147.168 70.6818C150.047 72.6515 153.577 73.6364 157.759 73.6364C161.941 73.6364 165.456 72.6515 168.305 70.6818C171.183 68.6818 173.35 65.7727 174.805 61.9545C176.289 58.1061 177.032 53.3939 177.032 47.8182Z" fill="url(#paint1_linear_1_17)"/>
<path d="M298.507 47.8182C298.507 58.1818 296.492 66.9242 292.461 74.0455C288.431 81.1364 282.992 86.5152 276.143 90.1818C269.295 93.8182 261.658 95.6364 253.234 95.6364C244.749 95.6364 237.083 93.803 230.234 90.1364C223.416 86.4394 217.992 81.0455 213.961 73.9545C209.961 66.8333 207.961 58.1212 207.961 47.8182C207.961 37.4545 209.961 28.7273 213.961 21.6364C217.992 14.5152 223.416 9.13636 230.234 5.5C237.083 1.83333 244.749 0 253.234 0C261.658 0 269.295 1.83333 276.143 5.5C282.992 9.13636 288.431 14.5152 292.461 21.6364C296.492 28.7273 298.507 37.4545 298.507 47.8182ZM272.507 47.8182C272.507 42.2424 271.764 37.5455 270.28 33.7273C268.825 29.8788 266.658 26.9697 263.78 25C260.931 23 257.416 22 253.234 22C249.052 22 245.522 23 242.643 25C239.795 26.9697 237.628 29.8788 236.143 33.7273C234.689 37.5455 233.961 42.2424 233.961 47.8182C233.961 53.3939 234.689 58.1061 236.143 61.9545C237.628 65.7727 239.795 68.6818 242.643 70.6818C245.522 72.6515 249.052 73.6364 253.234 73.6364C257.416 73.6364 260.931 72.6515 263.78 70.6818C266.658 68.6818 268.825 65.7727 270.28 61.9545C271.764 58.1061 272.507 53.3939 272.507 47.8182Z" fill="url(#paint2_linear_1_17)"/>
<path d="M38.1557 192.364H2.33751V99.2727H37.7921C47.3678 99.2727 55.6405 101.136 62.6102 104.864C69.6102 108.561 75.0042 113.894 78.7921 120.864C82.6102 127.803 84.5193 136.121 84.5193 145.818C84.5193 155.515 82.6254 163.848 78.8375 170.818C75.0496 177.758 69.686 183.091 62.7466 186.818C55.8072 190.515 47.6102 192.364 38.1557 192.364ZM27.6102 170.909H37.2466C41.8527 170.909 45.7769 170.167 49.0193 168.682C52.2921 167.197 54.7769 164.636 56.4739 161C58.2011 157.364 59.0648 152.303 59.0648 145.818C59.0648 139.333 58.186 134.273 56.4284 130.636C54.7011 127 52.1557 124.439 48.7921 122.955C45.4587 121.47 41.3678 120.727 36.5193 120.727H27.6102V170.909Z" fill="url(#paint3_linear_1_17)"/>
<path d="M115.085 99.2727V192.364H89.8125V99.2727H115.085Z" fill="url(#paint4_linear_1_17)"/>
<path d="M120.663 192.364V99.2727H186.117V119.636H145.935V135.636H182.117V156H145.935V192.364H120.663Z" fill="url(#paint5_linear_1_17)"/>
<path d="M185.194 99.2727H213.376L231.558 137.091H232.285L250.467 99.2727H278.649L244.467 163.091V192.364H219.376V163.091L185.194 99.2727Z" fill="url(#paint6_linear_1_17)"/>
<path d="M282.863 193.818C279.347 193.818 276.332 192.591 273.817 190.136C271.332 187.652 270.105 184.636 270.135 181.091C270.105 177.636 271.332 174.682 273.817 172.227C276.332 169.773 279.347 168.545 282.863 168.545C286.196 168.545 289.135 169.773 291.681 172.227C294.256 174.682 295.559 177.636 295.59 181.091C295.559 183.455 294.938 185.606 293.726 187.545C292.544 189.455 290.999 190.985 289.09 192.136C287.181 193.258 285.105 193.818 282.863 193.818Z" fill="url(#paint7_linear_1_17)"/>
<defs>
<linearGradient id="paint0_linear_1_17" x1="149.253" y1="0" x2="149.253" y2="193.818" gradientUnits="userSpaceOnUse">
<stop/>
<stop offset="0.637649" stop-opacity="0"/>
</linearGradient>
<linearGradient id="paint1_linear_1_17" x1="149.253" y1="0" x2="149.253" y2="193.818" gradientUnits="userSpaceOnUse">
<stop/>
<stop offset="0.637649" stop-opacity="0"/>
</linearGradient>
<linearGradient id="paint2_linear_1_17" x1="149.253" y1="0" x2="149.253" y2="193.818" gradientUnits="userSpaceOnUse">
<stop/>
<stop offset="0.637649" stop-opacity="0"/>
</linearGradient>
<linearGradient id="paint3_linear_1_17" x1="149.253" y1="0" x2="149.253" y2="193.818" gradientUnits="userSpaceOnUse">
<stop offset="0.273065" stop-color="white" stop-opacity="0.46875"/>
<stop offset="0.9999"/>
<stop offset="1" stop-color="white" stop-opacity="0"/>
</linearGradient>
<linearGradient id="paint4_linear_1_17" x1="149.253" y1="0" x2="149.253" y2="193.818" gradientUnits="userSpaceOnUse">
<stop offset="0.273065" stop-color="white" stop-opacity="0.46875"/>
<stop offset="0.9999"/>
<stop offset="1" stop-color="white" stop-opacity="0"/>
</linearGradient>
<linearGradient id="paint5_linear_1_17" x1="149.253" y1="0" x2="149.253" y2="193.818" gradientUnits="userSpaceOnUse">
<stop offset="0.273065" stop-color="white" stop-opacity="0.46875"/>
<stop offset="0.9999"/>
<stop offset="1" stop-color="white" stop-opacity="0"/>
</linearGradient>
<linearGradient id="paint6_linear_1_17" x1="149.253" y1="0" x2="149.253" y2="193.818" gradientUnits="userSpaceOnUse">
<stop offset="0.273065" stop-color="white" stop-opacity="0.46875"/>
<stop offset="0.9999"/>
<stop offset="1" stop-color="white" stop-opacity="0"/>
</linearGradient>
<linearGradient id="paint7_linear_1_17" x1="149.253" y1="0" x2="149.253" y2="193.818" gradientUnits="userSpaceOnUse">
<stop offset="0.273065" stop-color="white" stop-opacity="0.46875"/>
<stop offset="0.9999"/>
<stop offset="1" stop-color="white" stop-opacity="0"/>
</linearGradient>
</defs>
</svg>
